<?xml version="1.0" encoding="UTF-8" standalone="no"?>
<!-- Generator: Adobe Illustrator 15.0.0, SVG Export Plug-In  -->

<svg
   xmlns:dc="http://purl.org/dc/elements/1.1/"
   xmlns:cc="http://creativecommons.org/ns#"
   xmlns:rdf="http://www.w3.org/1999/02/22-rdf-syntax-ns#"
   xmlns:svg="http://www.w3.org/2000/svg"
   xmlns="http://www.w3.org/2000/svg"
   xmlns:sodipodi="http://sodipodi.sourceforge.net/DTD/sodipodi-0.dtd"
   xmlns:inkscape="http://www.inkscape.org/namespaces/inkscape"
   version="1.1"
   x="0px"
   y="0px"
   width="586.20697"
   height="171.50499"
   viewBox="-134.616 -205.583 586.20697 171.50499"
   enable-background="new -134.616 -205.583 842 595"
   xml:space="preserve"
   id="svg104"
   sodipodi:docname="Marca_Nexus24.svg"
   inkscape:version="0.92.1 r15371"><metadata
     id="metadata108"><rdf:RDF><cc:Work
         rdf:about=""><dc:format>image/svg+xml</dc:format><dc:type
           rdf:resource="http://purl.org/dc/dcmitype/StillImage" /><dc:title></dc:title></cc:Work></rdf:RDF></metadata><sodipodi:namedview
     pagecolor="#ffffff"
     bordercolor="#666666"
     borderopacity="1"
     objecttolerance="10"
     gridtolerance="10"
     guidetolerance="10"
     inkscape:pageopacity="0"
     inkscape:pageshadow="2"
     inkscape:window-width="1920"
     inkscape:window-height="1009"
     id="namedview106"
     showgrid="false"
     fit-margin-top="10"
     fit-margin-left="10"
     fit-margin-right="10"
     fit-margin-bottom="10"
     inkscape:zoom="1.7148375"
     inkscape:cx="301.42637"
     inkscape:cy="69.587995"
     inkscape:window-x="0"
     inkscape:window-y="34"
     inkscape:window-maximized="1"
     inkscape:current-layer="svg104" /><defs
     id="defs2" /><path
     d="m 14.685,-74.252 c 0,-0.977 0.977,-1.627 1.488,-1.627 0.977,0 1.674,1.674 1.674,2.045 0,1.256 -0.373,7.486 -0.559,10.555 1.303,-3.348 3.533,-10.135 8.275,-10.135 2.371,0 3.395,4.51 3.766,5.857 0.652,2.371 1.023,5.672 1.303,8.416 0.094,0.977 0.094,2.139 -0.836,2.139 -0.652,0 -1.396,-0.326 -1.535,-1.256 -0.326,-1.768 -0.512,-2.465 -0.791,-4.371 -0.139,-0.93 -1.021,-7.996 -2.51,-7.811 -1.209,0.141 -2.232,1.582 -2.697,2.232 -1.906,2.695 -4.23,8.09 -4.789,11.529 -0.186,1.396 -0.789,1.721 -1.115,1.721 -0.977,0 -1.488,-0.324 -1.488,-1.766 0,-1.117 0.094,-8.555 0.094,-10.322 -10e-4,-2.37 -0.28,-4.741 -0.28,-7.206 z"
     id="path4"
     inkscape:connector-curvature="0"
     style="fill:#009fe3" /><path
     d="m 40.212,-55.84 c -3.486,0 -7.066,-3.068 -7.066,-6.881 0,-2.791 0.836,-4.742 2.557,-6.789 1.906,-2.324 4.881,-4.557 7.578,-4.557 1.627,0 4.648,0.838 4.648,3.441 -0.045,4.695 -4.742,6.51 -8.693,6.51 -0.326,0 -3.021,-0.279 -3.301,-0.279 -0.465,2.975 1.023,5.766 4.092,6.09 2.324,0.279 4.369,-0.604 6.881,-2.092 0.512,-0.279 1.395,-1.115 1.674,-1.115 0.65,0 1.301,1.068 1.301,1.533 -0.001,1.395 -5.905,4.139 -9.671,4.139 z m 3.627,-15.715 c -2.512,0.232 -5.162,2.277 -6.604,4.416 0.838,0.465 2.883,0.744 4.697,0.326 1.998,-0.512 3.719,-1.906 3.719,-3.627 10e-4,-0.882 -0.835,-1.208 -1.812,-1.115 z"
     id="path6"
     inkscape:connector-curvature="0"
     style="fill:#009fe3" /><path
     d="m 63.228,-70.625 c -1.719,2.465 -3.393,5.533 -3.393,5.533 1.021,1.486 2.463,3.625 3.254,4.742 0.697,0.977 2,2.742 2,3.162 0,0.742 -0.467,1.301 -1.441,1.301 -0.42,0 -1.209,-1.162 -2,-2.418 -1.256,-1.859 -2.697,-3.486 -3.209,-4.324 -0.975,1.721 -3.346,5.209 -4.881,7.813 -1.07,1.813 -1.906,3.16 -2.371,3.16 -0.883,0 -1.115,-0.418 -1.115,-1.348 0,-1.115 2.836,-5.115 3.766,-6.834 1.766,-3.115 3.16,-5.162 3.068,-5.301 -0.186,-0.326 -2.047,-2.604 -3.627,-4.975 -0.65,-0.93 -1.115,-1.582 -1.162,-2.092 -0.047,-0.744 0.559,-1.535 1.627,-1.535 0.186,0 0.977,1.348 1.303,1.813 1.395,2.232 2.836,4.045 3.254,4.51 1.07,-1.533 5.625,-9.623 6.51,-9.623 1.209,0 1.58,0.65 1.58,1.395 -0.001,0.185 -1.628,2.744 -3.163,5.021 z"
     id="path8"
     inkscape:connector-curvature="0"
     style="fill:#009fe3" /><path
     d="m 83.036,-63.186 c 0,2.092 0.139,3.766 0.139,5.857 0,0.744 -0.744,1.58 -1.58,1.58 -1.395,0 -1.023,-2.184 -1.07,-2.881 -0.186,-2.232 0.141,-3.906 0.047,-6.23 -0.93,1.813 -4.416,8.646 -8.043,8.646 -2.557,0 -3.395,-6.508 -3.533,-7.299 -0.186,-1.301 -0.559,-5.578 -0.559,-8.09 0,-0.93 0.232,-2.465 1.303,-2.465 1.068,0 1.674,1.164 1.674,2.232 0,0.279 -0.326,4.65 0.139,8.369 0.094,0.65 0.744,4.416 1.627,4.416 0.977,0 6.742,-8.973 7.346,-10.553 0.326,-0.93 -0.232,-3.068 1.535,-3.068 0.418,0 1.348,0.418 1.348,1.58 -0.002,1.303 -0.373,5.721 -0.373,7.906 z"
     id="path10"
     inkscape:connector-curvature="0"
     style="fill:#009fe3" /><path
     d="m 94.523,-57.187 c -1.348,0.789 -4.928,2.742 -6.51,2.742 -0.744,0 -1.115,0.094 -1.115,-1.07 0,-1.115 2.742,-1.395 5.951,-3.346 2.23,-1.35 5.16,-3.768 5.16,-5.301 0,-1.162 -2.975,-0.326 -5.672,-0.326 -2.789,0.047 -5.301,-0.65 -5.301,-3.533 0,-2.277 6.324,-7.16 8.463,-7.951 1.115,-0.418 1.998,-0.836 2.928,-0.836 0.744,0 1.488,1.301 1.488,1.674 0,1.395 -0.93,2.139 -1.301,1.766 -0.838,-0.883 -1.953,-0.465 -2.139,-0.371 -2.512,0.977 -6.836,4.65 -6.836,5.813 0,1.254 3.441,1.021 3.488,1.021 2.186,-0.186 7.346,-0.557 7.346,2.559 0.001,2.834 -4.23,6.135 -5.95,7.159 z"
     id="path12"
     inkscape:connector-curvature="0"
     style="fill:#009fe3" /><path
     d="m 119.398,-60.117 c -2.418,0.836 -4.836,2.045 -6.975,3.068 -2.186,1.068 -4.092,1.859 -5.439,1.813 -1.023,-0.045 -2.418,-1.162 -2.418,-2.371 0,-1.209 0.744,-2.742 1.859,-4.51 1.117,-1.721 2.65,-3.627 4.139,-5.578 2.977,-3.906 5.998,-7.951 5.951,-10.973 0,-1.721 -1.721,-2.324 -4.557,-2.279 -1.998,0 -4.324,1.117 -6.184,1.861 -0.836,0.371 -1.766,-0.699 -1.766,-1.35 0,-1.721 7.252,-3.207 8.367,-3.207 1.674,0 6.928,0.277 6.928,4.557 0,3.719 -3.533,9.02 -6.787,13.389 -1.627,2.186 -3.162,4.139 -4.186,5.58 -0.465,0.697 -0.836,1.301 -0.975,1.721 -0.188,0.371 -0.188,0.789 0.324,0.836 0,0 3.209,-1.301 5.533,-2.371 1.721,-0.836 2.836,-1.395 4.604,-2.324 1.395,-0.744 2.557,-0.559 2.604,0.557 0.046,0.975 0.001,1.255 -1.022,1.581 z"
     id="path14"
     inkscape:connector-curvature="0"
     style="fill:#009fe3" /><path
     d="m 147.529,-65.557 c -1.162,0 -5.625,0.883 -6.648,1.068 -0.279,4.045 -0.465,7.766 -0.557,12.275 -0.047,1.813 -0.094,3.857 -0.326,5.439 -0.232,1.674 -0.65,2.695 -1.395,2.695 -0.65,0.047 -0.977,-0.742 -1.07,-1.766 -0.465,-3.533 0.047,-7.766 0.279,-11.299 0.141,-2.23 0.186,-4.416 0.279,-6.648 -1.627,0.373 -3.209,0.93 -4.928,1.395 -1.674,0.465 -3.488,0.838 -5.301,0.93 -0.838,0 -2.557,-0.697 -2.604,-1.766 -0.047,-1.859 14.135,-20.875 16.041,-20.875 1.254,0 1.766,0.324 1.627,1.441 -0.697,5.066 -1.303,10.041 -1.906,15.854 2.139,-0.186 4.277,-1.023 6.369,-1.07 1.209,-0.045 1.768,0.465 1.768,1.07 0,0.56 -0.605,1.21 -1.628,1.257 z m -18.922,1.534 c 3.486,-0.744 6.787,-1.209 9.67,-2.045 0.512,-4.139 0.791,-8.881 1.441,-12.926 -1.998,2.047 -10.229,12.832 -11.111,14.971 z"
     id="path16"
     inkscape:connector-curvature="0"
     style="fill:#009fe3" /><path
     d="m 38.304,-170.964 c -0.977,-3.812 -3.441,-6.602 -8.275,-6.602 -7.115,0 -10.09,6.277 -10.09,12.646 0,6.369 2.975,12.646 10.09,12.646 5.16,0 7.996,-3.859 8.461,-8.694 h 5.672 c -0.465,7.95 -6.09,13.437 -14.133,13.437 -9.951,0 -15.902,-7.904 -15.902,-17.389 0,-9.485 5.951,-17.389 15.902,-17.389 7.484,0.046 13.389,4.185 14.086,11.344 h -5.811 z"
     id="path18"
     inkscape:connector-curvature="0" /><path
     d="m 47.607,-160.363 c 0,-7.346 4.416,-12.646 12.135,-12.646 7.717,0 12.135,5.3 12.135,12.646 0,7.393 -4.418,12.693 -12.135,12.693 -7.719,0 -12.135,-5.301 -12.135,-12.693 z m 18.968,0 c 0,-4.138 -2.092,-8.461 -6.834,-8.461 -4.742,0 -6.836,4.324 -6.836,8.461 0,4.185 2.094,8.508 6.836,8.508 4.742,0 6.834,-4.324 6.834,-8.508 z"
     id="path20"
     inkscape:connector-curvature="0" /><path
     d="m 76.296,-172.358 h 5.021 v 3.348 h 0.139 c 1.582,-2.372 3.58,-3.999 7.393,-3.999 2.93,0 5.672,1.255 6.742,3.999 1.768,-2.464 4.045,-3.999 7.531,-3.999 5.068,0 8.045,2.231 8.045,8.09 v 16.598 h -5.301 v -14.041 c 0,-3.813 -0.232,-6.462 -4.371,-6.462 -3.58,0 -5.113,2.371 -5.113,6.416 v 14.087 h -5.301 v -15.436 c 0,-3.301 -1.023,-5.067 -4.23,-5.067 -2.744,0 -5.254,2.231 -5.254,6.23 v 14.273 h -5.301 z"
     id="path22"
     inkscape:connector-curvature="0" /><path
     d="m 137.859,-148.321 h -5.207 v -3.348 h -0.092 c -1.303,2.418 -4.186,3.999 -6.836,3.999 -6.275,0 -8.973,-3.162 -8.973,-9.438 v -15.25 h 5.301 v 14.738 c 0,4.231 1.721,5.765 4.602,5.765 4.418,0 5.906,-2.836 5.906,-6.555 v -13.948 h 5.299 z"
     id="path24"
     inkscape:connector-curvature="0" /><path
     d="m 143.443,-172.358 h 5.02 v 3.534 l 0.094,0.093 c 1.58,-2.65 4.324,-4.277 7.486,-4.277 5.207,0 8.508,2.79 8.508,8.183 v 16.505 h -5.301 v -15.11 c -0.092,-3.766 -1.58,-5.393 -4.695,-5.393 -3.533,0 -5.813,2.79 -5.813,6.323 v 14.181 h -5.299 z"
     id="path26"
     inkscape:connector-curvature="0" /><path
     d="m 170.271,-181.518 h 5.301 v 5.021 h -5.301 z m 0,9.16 h 5.301 v 24.037 h -5.301 z"
     id="path28"
     inkscape:connector-curvature="0" /><path
     d="m 178.921,-172.358 h 3.998 v -7.207 h 5.301 v 7.207 h 4.789 v 3.952 h -4.789 v 12.833 c 0,2.185 0.186,3.301 2.557,3.301 0.744,0 1.488,0 2.232,-0.186 v 4.091 c -1.164,0.093 -2.279,0.279 -3.441,0.279 -5.533,0 -6.555,-2.139 -6.648,-6.137 v -14.182 h -3.998 v -3.951 z"
     id="path30"
     inkscape:connector-curvature="0" /><path
     d="m 216.954,-153.668 c 0,1.302 0.279,1.813 1.256,1.813 0.324,0 0.744,0 1.301,-0.093 v 3.673 c -0.789,0.279 -2.463,0.604 -3.348,0.604 -2.139,0 -3.672,-0.744 -4.092,-2.929 -2.092,2.046 -5.484,2.929 -8.322,2.929 -4.322,0 -8.229,-2.325 -8.229,-7.021 0,-5.998 4.789,-6.974 9.252,-7.485 3.813,-0.697 7.207,-0.279 7.207,-3.394 0,-2.743 -2.836,-3.254 -4.975,-3.254 -2.977,0 -5.068,1.208 -5.301,3.812 h -5.301 c 0.373,-6.184 5.627,-7.997 10.926,-7.997 4.697,0 9.625,1.906 9.625,6.974 v 12.368 z m -5.3,-6.695 c -1.627,1.069 -4.184,1.023 -6.508,1.441 -2.279,0.372 -4.324,1.209 -4.324,3.999 0,2.371 3.021,3.068 4.881,3.068 2.324,0 5.951,-1.208 5.951,-4.556 z"
     id="path32"
     inkscape:connector-curvature="0" /><path
     d="m 220.259,-172.358 h 3.998 v -7.207 h 5.301 v 7.207 h 4.789 v 3.952 h -4.789 v 12.833 c 0,2.185 0.186,3.301 2.557,3.301 0.744,0 1.488,0 2.232,-0.186 v 4.091 c -1.164,0.093 -2.279,0.279 -3.441,0.279 -5.533,0 -6.555,-2.139 -6.648,-6.137 v -14.182 h -3.998 v -3.951 z"
     id="path34"
     inkscape:connector-curvature="0" /><path
     d="m 242.159,-156.039 c 0.279,3.068 2.604,4.184 5.439,4.184 1.998,0 5.486,-0.418 5.346,-3.161 -0.139,-2.79 -3.998,-3.115 -7.857,-3.999 -3.904,-0.837 -7.717,-2.232 -7.717,-7.114 0,-5.254 5.672,-6.881 10.043,-6.881 4.928,0 9.391,2.045 10.041,7.393 h -5.531 c -0.465,-2.511 -2.559,-3.208 -4.883,-3.208 -1.533,0 -4.369,0.372 -4.369,2.464 0,2.604 3.904,2.976 7.811,3.859 3.859,0.883 7.764,2.278 7.764,7.021 0,5.719 -5.766,7.811 -10.74,7.811 -6.043,0 -10.553,-2.697 -10.646,-8.369 z"
     id="path36"
     inkscape:connector-curvature="0" /><path
     d="m 38.304,-121.464 c -0.977,-3.812 -3.441,-6.602 -8.275,-6.602 -7.115,0 -10.09,6.277 -10.09,12.646 0,6.369 2.975,12.646 10.09,12.646 5.16,0 7.996,-3.859 8.461,-8.694 h 5.672 c -0.465,7.951 -6.09,13.437 -14.133,13.437 -9.951,0 -15.902,-7.904 -15.902,-17.389 0,-9.485 5.951,-17.389 15.902,-17.389 7.484,0.046 13.389,4.185 14.086,11.344 h -5.811 z"
     id="path38"
     inkscape:connector-curvature="0" /><path
     d="m 47.607,-110.864 c 0,-7.346 4.416,-12.646 12.135,-12.646 7.717,0 12.135,5.3 12.135,12.646 0,7.393 -4.418,12.694 -12.135,12.694 -7.719,0 -12.135,-5.301 -12.135,-12.694 z m 18.968,0 c 0,-4.138 -2.092,-8.461 -6.834,-8.461 -4.742,0 -6.836,4.324 -6.836,8.461 0,4.185 2.094,8.508 6.836,8.508 4.742,0 6.834,-4.323 6.834,-8.508 z"
     id="path40"
     inkscape:connector-curvature="0" /><path
     d="m 76.435,-132.018 h 5.301 v 33.196 h -5.301 z"
     id="path42"
     inkscape:connector-curvature="0" /><path
     d="m 91.175,-116.303 c 1.859,0 3.486,1.627 3.486,3.44 0,1.86 -1.58,3.534 -3.486,3.534 -1.906,0 -3.486,-1.674 -3.486,-3.534 0,-1.813 1.674,-3.44 3.486,-3.44 z"
     id="path44"
     inkscape:connector-curvature="0" /><path
     d="m 100.568,-132.018 h 5.301 v 33.196 h -5.301 z"
     id="path46"
     inkscape:connector-curvature="0" /><path
     d="m 131.767,-104.168 c 0,1.302 0.279,1.813 1.256,1.813 0.324,0 0.744,0 1.301,-0.094 v 3.674 c -0.789,0.279 -2.463,0.605 -3.348,0.605 -2.139,0 -3.672,-0.744 -4.092,-2.93 -2.092,2.045 -5.484,2.93 -8.322,2.93 -4.322,0 -8.229,-2.326 -8.229,-7.021 0,-5.998 4.789,-6.974 9.252,-7.485 3.813,-0.697 7.207,-0.279 7.207,-3.394 0,-2.743 -2.836,-3.254 -4.975,-3.254 -2.977,0 -5.068,1.208 -5.301,3.812 h -5.301 c 0.373,-6.184 5.627,-7.997 10.926,-7.997 4.697,0 9.625,1.906 9.625,6.974 v 12.367 z m -5.301,-6.696 c -1.627,1.069 -4.184,1.023 -6.508,1.441 -2.279,0.372 -4.324,1.209 -4.324,3.999 0,2.371 3.021,3.068 4.881,3.068 2.324,0 5.951,-1.208 5.951,-4.556 z"
     id="path48"
     inkscape:connector-curvature="0" /><path
     d="m 137.628,-132.018 h 5.301 v 12.274 h 0.092 c 1.441,-2.325 4.465,-3.766 7.16,-3.766 7.578,0 11.252,5.765 11.252,12.786 0,6.462 -3.254,12.554 -10.367,12.554 -3.256,0 -6.742,-0.791 -8.324,-3.953 h -0.092 v 3.301 h -5.021 v -33.196 z m 11.856,12.693 c -4.463,0 -6.742,3.394 -6.742,8.508 0,4.835 2.465,8.461 6.742,8.461 4.836,0 6.648,-4.277 6.648,-8.461 0,-4.37 -2.277,-8.508 -6.648,-8.508 z"
     id="path50"
     inkscape:connector-curvature="0" /><path
     d="m 164.784,-110.864 c 0,-7.346 4.416,-12.646 12.135,-12.646 7.717,0 12.135,5.3 12.135,12.646 0,7.393 -4.418,12.694 -12.135,12.694 -7.719,0 -12.135,-5.301 -12.135,-12.694 z m 18.969,0 c 0,-4.138 -2.092,-8.461 -6.834,-8.461 -4.742,0 -6.836,4.324 -6.836,8.461 0,4.185 2.094,8.508 6.836,8.508 4.742,0 6.834,-4.323 6.834,-8.508 z"
     id="path52"
     inkscape:connector-curvature="0" /><path
     d="m 193.474,-122.859 h 4.975 v 4.649 h 0.094 c 0.604,-2.557 3.766,-5.3 7.02,-5.3 1.209,0 1.535,0.093 2,0.139 v 5.115 c -0.744,-0.093 -1.535,-0.233 -2.279,-0.233 -3.625,0 -6.508,2.929 -6.508,8.229 v 11.437 h -5.301 v -24.036 z"
     id="path54"
     inkscape:connector-curvature="0" /><path
     d="m 229.972,-104.168 c 0,1.302 0.279,1.813 1.256,1.813 0.326,0 0.744,0 1.303,-0.094 v 3.674 c -0.791,0.279 -2.465,0.605 -3.348,0.605 -2.139,0 -3.674,-0.744 -4.092,-2.93 -2.092,2.045 -5.486,2.93 -8.322,2.93 -4.324,0 -8.229,-2.326 -8.229,-7.021 0,-5.998 4.787,-6.974 9.252,-7.485 3.813,-0.697 7.205,-0.279 7.205,-3.394 0,-2.743 -2.836,-3.254 -4.975,-3.254 -2.975,0 -5.066,1.208 -5.299,3.812 h -5.301 c 0.371,-6.184 5.625,-7.997 10.926,-7.997 4.695,0 9.623,1.906 9.623,6.974 v 12.367 z m -5.299,-6.696 c -1.627,1.069 -4.186,1.023 -6.51,1.441 -2.277,0.372 -4.324,1.209 -4.324,3.999 0,2.371 3.023,3.068 4.883,3.068 2.324,0 5.951,-1.208 5.951,-4.556 z"
     id="path56"
     inkscape:connector-curvature="0" /><path
     d="m 233.277,-122.859 h 3.998 v -7.207 h 5.301 v 7.207 h 4.789 v 3.952 h -4.789 v 12.832 c 0,2.185 0.186,3.301 2.557,3.301 0.744,0 1.488,0 2.232,-0.186 v 4.09 c -1.162,0.094 -2.277,0.279 -3.441,0.279 -5.531,0 -6.555,-2.139 -6.648,-6.137 v -14.18 h -3.998 v -3.951 z"
     id="path58"
     inkscape:connector-curvature="0" /><path
     d="m 251.318,-132.018 h 5.301 v 5.021 h -5.301 z m 0,9.159 h 5.301 v 24.037 h -5.301 z"
     id="path60"
     inkscape:connector-curvature="0" /><path
     d="m 260.013,-122.859 h 5.766 l 6.092,18.458 h 0.092 l 5.859,-18.458 h 5.486 l -8.602,24.037 h -5.951 z"
     id="path62"
     inkscape:connector-curvature="0" /><path
     d="m 290.657,-109.469 c 0,3.766 2.045,7.113 6.463,7.113 3.068,0 4.928,-1.348 5.857,-3.998 h 5.021 c -1.162,5.254 -5.627,8.184 -10.879,8.184 -7.533,0 -11.764,-5.255 -11.764,-12.647 0,-6.835 4.463,-12.693 11.623,-12.693 7.578,0 12.229,6.834 11.344,14.041 z m 12.368,-3.487 c -0.188,-3.348 -2.465,-6.37 -6.045,-6.37 -3.672,0 -6.184,2.79 -6.322,6.37 z"
     id="path64"
     inkscape:connector-curvature="0" /><path
     d="m 316.37,-106.54 c 0.279,3.068 2.604,4.184 5.439,4.184 2,0 5.486,-0.418 5.348,-3.162 -0.139,-2.79 -3.998,-3.115 -7.857,-3.998 -3.906,-0.837 -7.719,-2.232 -7.719,-7.114 0,-5.253 5.674,-6.881 10.043,-6.881 4.928,0 9.393,2.045 10.043,7.393 h -5.533 c -0.465,-2.511 -2.557,-3.208 -4.881,-3.208 -1.535,0 -4.371,0.372 -4.371,2.464 0,2.604 3.906,2.976 7.811,3.859 3.859,0.883 7.766,2.278 7.766,7.021 0,5.718 -5.766,7.812 -10.74,7.812 -6.045,0 -10.555,-2.697 -10.646,-8.37 z"
     id="path66"
     inkscape:connector-curvature="0" /><path
     d="m 380.027,-133.878 v 19.713 c 0,4.51 -0.188,8.973 -3.674,12.368 -2.93,2.883 -7.531,3.904 -11.623,3.904 -4.092,0 -8.695,-1.021 -11.623,-3.904 -3.488,-3.395 -3.674,-7.858 -3.674,-12.368 v -19.713 h 9.113 v 18.458 c 0,4.556 0.324,9.531 6.184,9.531 5.857,0 6.184,-4.975 6.184,-9.531 v -18.458 z"
     id="path68"
     inkscape:connector-curvature="0" /><path
     d="m 385.796,-133.878 h 13.947 c 7.533,0 12.74,3.487 12.74,11.53 0,8.276 -4.465,11.902 -12.414,11.902 h -5.162 v 11.623 h -9.111 z m 9.111,16.087 h 1.535 c 3.301,0 6.555,0 6.555,-4.277 0,-4.417 -3.021,-4.463 -6.555,-4.463 h -1.535 z"
     id="path70"
     inkscape:connector-curvature="0" /><path
     d="m 441.591,-122.115 c -1.859,-2.51 -4.881,-3.859 -7.996,-3.859 -5.578,0 -9.346,4.277 -9.346,9.717 0,5.533 3.813,9.531 9.484,9.531 2.977,0 5.951,-1.441 7.857,-3.72 v 10.926 c -3.021,0.93 -5.207,1.627 -8.043,1.627 -4.881,0 -9.531,-1.859 -13.156,-5.16 -3.859,-3.487 -5.627,-8.043 -5.627,-13.25 0,-4.789 1.814,-9.392 5.16,-12.833 3.441,-3.533 8.416,-5.672 13.344,-5.672 2.93,0 5.627,0.651 8.322,1.767 v 10.926 z"
     id="path72"
     inkscape:connector-curvature="0" /><path
     stroke-miterlimit="10"
     d="m -1.553,-115.051 c -10.494,0 -19,-8.506 -19,-19 0,-10.494 8.506,-18.999 19,-18.999"
     id="path74"
     inkscape:connector-curvature="0"
     style="fill:none;stroke:#009fe3;stroke-width:4.5;stroke-miterlimit:10" /><path
     stroke-miterlimit="10"
     d="m -124.616,-153.05 c 10.494,0 19,8.505 19,18.999 0,10.494 -8.506,19 -19,19"
     id="path76"
     inkscape:connector-curvature="0"
     style="fill:none;stroke:#009fe3;stroke-width:4.5;stroke-miterlimit:10" /><path
     stroke-miterlimit="10"
     d="m -44.085,-195.583 c 0,10.494 -8.504,19.002 -18.998,19.002 -10.494,0 -19.002,-8.508 -19.002,-19.002"
     id="path78"
     inkscape:connector-curvature="0"
     style="fill:none;stroke:#009fe3;stroke-width:4.5;stroke-miterlimit:10" /><path
     stroke-miterlimit="10"
     d="m -82.085,-71.021 c 0,-10.494 8.508,-19 19.002,-19 10.494,0 18.998,8.506 18.998,19"
     id="path80"
     inkscape:connector-curvature="0"
     style="fill:none;stroke:#009fe3;stroke-width:4.5;stroke-miterlimit:10" /><line
     stroke-miterlimit="10"
     x1="-97.254997"
     y1="-103.342"
     x2="-67.565002"
     y2="-178.317"
     id="line82"
     style="fill:none;stroke:#009fe3;stroke-width:4.5;stroke-miterlimit:10" /><line
     stroke-miterlimit="10"
     x1="-91.899002"
     y1="-163.55299"
     x2="-31.208002"
     y2="-102.392"
     id="line84"
     style="fill:none;stroke:#009fe3;stroke-width:4.5;stroke-miterlimit:10" /><line
     stroke-miterlimit="10"
     x1="-90.598"
     y1="-96.174004"
     x2="-18.280001"
     y2="-126.516"
     id="line86"
     style="fill:none;stroke:#009fe3;stroke-width:4.5;stroke-miterlimit:10" /><path
     stroke-miterlimit="10"
     d="m -121.616,-102.392 c 7.422,-7.421 19.451,-7.421 26.871,0 7.418,7.419 7.422,19.448 0,26.87"
     id="path88"
     inkscape:connector-curvature="0"
     style="fill:none;stroke:#009fe3;stroke-width:4.5;stroke-miterlimit:10" /><path
     stroke-miterlimit="10"
     d="m -91.899,-190.424 c 7.42,7.421 7.42,19.45 0,26.871 -7.422,7.421 -19.451,7.421 -26.871,0"
     id="path90"
     inkscape:connector-curvature="0"
     style="fill:none;stroke:#009fe3;stroke-width:4.5;stroke-miterlimit:10" /><path
     stroke-miterlimit="10"
     d="m -4.337,-162.929 c -7.418,7.421 -19.451,7.418 -26.871,0 -7.422,-7.421 -7.418,-19.45 0,-26.871"
     id="path92"
     inkscape:connector-curvature="0"
     style="fill:none;stroke:#009fe3;stroke-width:4.5;stroke-miterlimit:10" /><path
     stroke-miterlimit="10"
     d="m -31.208,-75.525 c -7.422,-7.418 -7.422,-19.447 0,-26.866 7.42,-7.421 19.449,-7.421 26.871,0"
     id="path94"
     inkscape:connector-curvature="0"
     style="fill:none;stroke:#009fe3;stroke-width:4.5;stroke-miterlimit:10" /><line
     stroke-miterlimit="10"
     x1="-25.184"
     y1="-105.501"
     x2="-55.903004"
     y2="-178.317"
     id="line96"
     style="fill:none;stroke:#009fe3;stroke-width:4.5;stroke-miterlimit:10" /><line
     stroke-miterlimit="10"
     x1="-68.413002"
     y1="-87.459"
     x2="-97.254997"
     y2="-159.79601"
     id="line98"
     style="fill:none;stroke:#009fe3;stroke-width:4.5;stroke-miterlimit:10" /><line
     stroke-miterlimit="10"
     x1="-106.372"
     y1="-139.358"
     x2="-33.842999"
     y2="-168.923"
     id="line100"
     style="fill:none;stroke:#009fe3;stroke-width:4.5;stroke-miterlimit:10" /><line
     stroke-miterlimit="10"
     x1="-56.857998"
     y1="-88.973"
     x2="-24.338999"
     y2="-158.537"
     id="line102"
     style="fill:none;stroke:#009fe3;stroke-width:4.5;stroke-miterlimit:10" /></svg>